<svg width="24" height="20" viewBox="0 0 24 20" fill="none" xmlns="http://www.w3.org/2000/svg">
<path d="M22.4191 0H0.605923C0.272665 0 0 0.272665 0 0.605923V15.1481C0 15.4813 0.272665 15.754 0.605923 15.754H5.4533V19.3895C5.4533 19.9349 6.08952 20.2075 6.48337 19.8137L10.6036 15.754H22.4191C22.7524 15.754 23.0251 15.4813 23.0251 15.1481V0.605923C23.0251 0.272665 22.7524 0 22.4191 0ZM21.8132 14.5421H10.3613C10.2098 14.5421 10.0583 14.6027 9.93713 14.7239L6.66515 17.9353V15.1481C6.66515 14.8148 6.39248 14.5421 6.05923 14.5421H1.21185V1.21185H21.8132V14.5421Z" fill="#858383"/>
</svg>
