<svg width="40" height="40" viewBox="0 0 40 40" fill="none" xmlns="http://www.w3.org/2000/svg">
<circle cx="20" cy="20" r="20" fill="#C40000"/>
<path d="M16.6667 19.9999C16.6663 19.8052 16.7341 19.6165 16.8583 19.4666L21.025 14.4666C21.1664 14.2964 21.3697 14.1894 21.5901 14.1691C21.8104 14.1487 22.0298 14.2168 22.2 14.3582C22.3702 14.4997 22.4772 14.7029 22.4975 14.9233C22.5178 15.1437 22.4498 15.3631 22.3083 15.5332L18.575 19.9999L22.175 24.4666C22.2442 24.5518 22.2959 24.6499 22.3271 24.7552C22.3583 24.8605 22.3684 24.9709 22.3568 25.0801C22.3451 25.1892 22.3121 25.2951 22.2594 25.3914C22.2068 25.4878 22.1356 25.5728 22.05 25.6416C21.9643 25.7179 21.8638 25.7757 21.7547 25.8113C21.6457 25.847 21.5304 25.8598 21.4162 25.8488C21.302 25.8379 21.1912 25.8034 21.091 25.7477C20.9907 25.692 20.9029 25.6161 20.8333 25.5249L16.8083 20.5249C16.7037 20.3707 16.6539 20.1858 16.6667 19.9999Z" fill="white"/>
</svg>
