<svg width="40" height="40" viewBox="0 0 40 40" fill="none" xmlns="http://www.w3.org/2000/svg">
<circle cx="20" cy="20" r="20" transform="rotate(-180 20 20)" fill="#E5E5E5"/>
<path d="M23.3333 20.0001C23.3337 20.1948 23.2659 20.3835 23.1417 20.5334L18.975 25.5334C18.8336 25.7036 18.6303 25.8106 18.4099 25.8309C18.1896 25.8513 17.9702 25.7832 17.8 25.6418C17.6298 25.5003 17.5228 25.2971 17.5025 25.0767C17.4822 24.8563 17.5502 24.6369 17.6917 24.4668L21.425 20.0001L17.825 15.5334C17.7558 15.4482 17.7041 15.3501 17.6729 15.2448C17.6417 15.1395 17.6316 15.0291 17.6432 14.9199C17.6549 14.8108 17.6879 14.7049 17.7406 14.6086C17.7932 14.5122 17.8644 14.4272 17.95 14.3584C18.0357 14.2821 18.1362 14.2243 18.2453 14.1887C18.3543 14.153 18.4696 14.1402 18.5838 14.1512C18.698 14.1621 18.8087 14.1966 18.909 14.2523C19.0093 14.308 19.097 14.3839 19.1667 14.4751L23.1917 19.4751C23.2963 19.6293 23.3461 19.8142 23.3333 20.0001Z" fill="white"/>
</svg>
