<svg width="16" height="21" viewBox="0 0 16 21" fill="none" xmlns="http://www.w3.org/2000/svg">
<path fill-rule="evenodd" clip-rule="evenodd" d="M7.84455 20.1567C4.15273 20.1567 1 19.5822 1 17.2814C1 14.9806 4.13273 12.3567 7.84455 12.3567C11.5364 12.3567 14.6891 14.96 14.6891 17.2608C14.6891 19.5607 11.5564 20.1567 7.84455 20.1567Z" stroke="#858383" stroke-width="1.7" stroke-linecap="round" stroke-linejoin="round"/>
<path fill-rule="evenodd" clip-rule="evenodd" d="M7.83728 10.1735C10.26 10.1735 12.2236 8.2099 12.2236 5.78718C12.2236 3.36445 10.26 1.3999 7.83728 1.3999C5.41455 1.3999 3.44998 3.36445 3.44998 5.78718C3.44182 8.20172 5.39182 10.1654 7.80637 10.1735C7.81728 10.1735 7.82728 10.1735 7.83728 10.1735Z" stroke="#858383" stroke-width="1.7" stroke-linecap="round" stroke-linejoin="round"/>
</svg>
