<svg width="19" height="19" viewBox="0 0 19 19" fill="none" xmlns="http://www.w3.org/2000/svg">
<path fill-rule="evenodd" clip-rule="evenodd" d="M9.13104 0C14.1659 0 18.2613 4.00508 18.2613 8.9289C18.2613 11.2519 17.3497 13.3707 15.8579 14.9608L18.7933 17.8254C19.068 18.0941 19.069 18.5287 18.7943 18.7974C18.6574 18.9331 18.4764 19 18.2964 19C18.1173 19 17.9373 18.9331 17.7995 18.7992L14.8287 15.902C13.2659 17.126 11.2844 17.8587 9.13104 17.8587C4.09616 17.8587 -0.000183105 13.8527 -0.000183105 8.9289C-0.000183105 4.00508 4.09616 0 9.13104 0ZM9.13104 1.37537C4.87155 1.37537 1.40621 4.76336 1.40621 8.9289C1.40621 13.0944 4.87155 16.4833 9.13104 16.4833C13.3896 16.4833 16.8549 13.0944 16.8549 8.9289C16.8549 4.76336 13.3896 1.37537 9.13104 1.37537Z" fill="#202E33"/>
</svg>
