<svg width="23" height="20" viewBox="0 0 23 20" fill="none" xmlns="http://www.w3.org/2000/svg">
<path d="M11.0171 19.8333L1.87817 10.7778C1.48928 10.4167 1.18372 10 0.905944 9.55556C-0.594057 7.08333 -0.205168 3.91667 1.87817 1.86111C3.07261 0.666667 4.68372 0 6.37817 0C9.04483 0 10.7115 1.55556 11.4059 2.44444C12.1004 1.55556 13.7671 0 16.4337 0C18.1282 0 19.7393 0.666667 20.9337 1.86111C22.9893 3.91667 23.4059 7.08333 21.9059 9.55556C21.6282 10 21.3226 10.4167 20.9337 10.7778L11.7948 19.8333C11.5726 20.0556 11.2393 20.0556 11.0171 19.8333ZM6.37817 1.11111C4.9615 1.11111 3.65594 1.66667 2.65594 2.63889C0.961499 4.33333 0.628166 6.94444 1.85039 8.97222C2.07261 9.33333 2.35039 9.69444 2.65594 10L11.4059 18.6667L20.1559 10C20.4615 9.69444 20.7393 9.36111 20.9615 8.97222C22.1837 6.91667 21.8782 4.30556 20.1559 2.63889C19.1559 1.66667 17.8226 1.11111 16.4337 1.11111C14.4337 1.11111 12.7671 2.19444 11.8782 3.69444C11.6559 4.05556 11.1282 4.05556 10.9059 3.69444C10.0448 2.19444 8.37817 1.11111 6.37817 1.11111Z" fill="#858383"/>
</svg>
